<?xml version="1.0" encoding="utf-8"?>
<!-- Generator: Adobe Illustrator 15.0.0, SVG Export Plug-In . SVG Version: 6.00 Build 0)  -->
<!DOCTYPE svg PUBLIC "-//W3C//DTD SVG 1.1//EN" "http://www.w3.org/Graphics/SVG/1.1/DTD/svg11.dtd">
<svg version="1.1" id="Слой_1" xmlns="http://www.w3.org/2000/svg" xmlns:xlink="http://www.w3.org/1999/xlink" x="0px" y="0px"
	 width="32px" height="32px" viewBox="0 0 32 32" enable-background="new 0 0 32 32" xml:space="preserve">
<g>
	<defs>
		<rect id="SVGID_1_" x="-184.583" y="-99" width="1303.166" height="359.984"/>
	</defs>
	<clipPath id="SVGID_2_">
		<use xlink:href="#SVGID_1_"  overflow="visible"/>
	</clipPath>
	<path clip-path="url(#SVGID_2_)" fill="#37929b" d="M28.828,29.473h-26V6.598h26V29.473z M30.828,4.598h-30v26.875h30V4.598z"/>
</g>
<g>
	<defs>
		<rect id="SVGID_3_" x="-184.583" y="-99" width="1303.166" height="359.984"/>
	</defs>
	<clipPath id="SVGID_4_">
		<use xlink:href="#SVGID_3_"  overflow="visible"/>
	</clipPath>
	<rect x="7.787" y="11.808" clip-path="url(#SVGID_4_)" fill="#37929b" width="5.5" height="5.5"/>
</g>
<g>
	<defs>
		<rect id="SVGID_5_" x="-184.583" y="-99" width="1303.166" height="359.984"/>
	</defs>
	<clipPath id="SVGID_6_">
		<use xlink:href="#SVGID_5_"  overflow="visible"/>
	</clipPath>
	<rect x="7.787" y="21.64" clip-path="url(#SVGID_6_)" fill="#37929b" width="5.5" height="5.501"/>
</g>
<g>
	<defs>
		<rect id="SVGID_7_" x="-184.583" y="-99" width="1303.166" height="359.984"/>
	</defs>
	<clipPath id="SVGID_8_">
		<use xlink:href="#SVGID_7_"  overflow="visible"/>
	</clipPath>
	<rect x="18.371" y="11.808" clip-path="url(#SVGID_8_)" fill="#37929b" width="5.5" height="5.5"/>
</g>
<g>
	<defs>
		<rect id="SVGID_9_" x="-184.583" y="-99" width="1303.166" height="359.984"/>
	</defs>
	<clipPath id="SVGID_10_">
		<use xlink:href="#SVGID_9_"  overflow="visible"/>
	</clipPath>
	<rect x="18.371" y="21.64" clip-path="url(#SVGID_10_)" fill="#37929b" width="5.5" height="5.501"/>
</g>
<g>
	<defs>
		<rect id="SVGID_11_" x="-184.583" y="-99" width="1303.166" height="359.984"/>
	</defs>
	<clipPath id="SVGID_12_">
		<use xlink:href="#SVGID_11_"  overflow="visible"/>
	</clipPath>
	<rect x="7.537" y="1.474" clip-path="url(#SVGID_12_)" fill="#37929b" width="3" height="6.25"/>
</g>
<g>
	<defs>
		<rect id="SVGID_13_" x="-184.583" y="-99" width="1303.166" height="359.984"/>
	</defs>
	<clipPath id="SVGID_14_">
		<use xlink:href="#SVGID_13_"  overflow="visible"/>
	</clipPath>
	<rect x="14.329" y="1.474" clip-path="url(#SVGID_14_)" fill="#37929b" width="3" height="6.25"/>
</g>
<g>
	<defs>
		<rect id="SVGID_15_" x="-184.583" y="-99" width="1303.166" height="359.984"/>
	</defs>
	<clipPath id="SVGID_16_">
		<use xlink:href="#SVGID_15_"  overflow="visible"/>
	</clipPath>
	<rect x="20.871" y="1.474" clip-path="url(#SVGID_16_)" fill="#37929b" width="3" height="6.25"/>
</g>
</svg>
