<?xml version="1.0" encoding="utf-8"?>
<!-- Generator: Adobe Illustrator 15.0.0, SVG Export Plug-In . SVG Version: 6.00 Build 0)  -->
<!DOCTYPE svg PUBLIC "-//W3C//DTD SVG 1.1//EN" "http://www.w3.org/Graphics/SVG/1.1/DTD/svg11.dtd">
<svg version="1.1" id="Слой_1" xmlns="http://www.w3.org/2000/svg" xmlns:xlink="http://www.w3.org/1999/xlink" x="0px" y="0px"
	 width="32px" height="32px" viewBox="0 0 32 32" enable-background="new 0 0 32 32" xml:space="preserve">
<g>
	<defs>
		<rect id="SVGID_1_" x="-228.568" y="-98.2" width="1290.134" height="356.384"/>
	</defs>
	<clipPath id="SVGID_2_">
		<use xlink:href="#SVGID_1_"  overflow="visible"/>
	</clipPath>
	<g clip-path="url(#SVGID_2_)">
		<path fill="#37929b" d="M8.858,9.189h-5.94v-5.94h5.94V9.189z M10.838,1.269h-9.9v9.9h9.9V1.269z"/>
	</g>
</g>
<g>
	<defs>
		<rect id="SVGID_3_" x="-228.568" y="-98.2" width="1290.134" height="356.384"/>
	</defs>
	<clipPath id="SVGID_4_">
		<use xlink:href="#SVGID_3_"  overflow="visible"/>
	</clipPath>
	<g clip-path="url(#SVGID_4_)">
		<path fill="#37929b" d="M28.656,19.491h-3.96v-3.96h3.96V19.491z M30.636,13.551h-7.92v7.92h7.92V13.551z"/>
	</g>
</g>
<g>
	<defs>
		<rect id="SVGID_5_" x="-228.568" y="-98.2" width="1290.134" height="356.384"/>
	</defs>
	<clipPath id="SVGID_6_">
		<use xlink:href="#SVGID_5_"  overflow="visible"/>
	</clipPath>
	<g clip-path="url(#SVGID_6_)">
		<path fill="#37929b" d="M28.656,28.989h-3.96v-3.96h3.96V28.989z M30.636,23.049h-7.92v7.92h7.92V23.049z"/>
	</g>
</g>
<g>
	<defs>
		<rect id="SVGID_7_" x="-228.568" y="-98.2" width="1290.134" height="356.384"/>
	</defs>
	<clipPath id="SVGID_8_">
		<use xlink:href="#SVGID_7_"  overflow="visible"/>
	</clipPath>
	<g clip-path="url(#SVGID_8_)">
		<polygon fill="#37929b" points="23.108,17.991 5.388,17.991 5.388,11.169 6.388,11.169 6.388,16.991 23.108,16.991 		"/>
	</g>
</g>
<g>
	<defs>
		<rect id="SVGID_9_" x="-228.568" y="-98.2" width="1290.134" height="356.384"/>
	</defs>
	<clipPath id="SVGID_10_">
		<use xlink:href="#SVGID_9_"  overflow="visible"/>
	</clipPath>
	<g clip-path="url(#SVGID_10_)">
		<polygon fill="#37929b" points="23.108,27.509 5.388,27.509 5.388,17.491 6.388,17.491 6.388,26.509 23.108,26.509 		"/>
	</g>
</g>
</svg>
