<?xml version="1.0" encoding="utf-8"?>
<!-- Generator: Adobe Illustrator 15.0.0, SVG Export Plug-In . SVG Version: 6.00 Build 0)  -->
<!DOCTYPE svg PUBLIC "-//W3C//DTD SVG 1.1//EN" "http://www.w3.org/Graphics/SVG/1.1/DTD/svg11.dtd">
<svg version="1.1" id="Слой_1" xmlns="http://www.w3.org/2000/svg" xmlns:xlink="http://www.w3.org/1999/xlink" x="0px" y="0px"
	 width="32px" height="32px" viewBox="0 0 32 32" enable-background="new 0 0 32 32" xml:space="preserve">
<g>
	<defs>
		<rect id="SVGID_1_" x="-416.084" y="-99" width="1303.166" height="359.983"/>
	</defs>
	<clipPath id="SVGID_2_">
		<use xlink:href="#SVGID_1_"  overflow="visible"/>
	</clipPath>
	<path clip-path="url(#SVGID_2_)" fill="#009953" d="M16.384,3.95c7.168,0,13,5.832,13,13c0,4.682-2.563,8.996-6.548,11.286
		l-1.686-4.66c1.224-0.876,2.182-2.078,2.771-3.504c0.834-2.015,0.834-4.23,0-6.244s-2.402-3.582-4.416-4.416
		c-1-0.414-2.05-0.624-3.122-0.624s-2.122,0.21-3.122,0.624c-2.014,0.834-3.582,2.402-4.416,4.416s-0.834,4.229,0,6.244
		c0.599,1.443,1.574,2.658,2.82,3.538l-1.684,4.653c-4.015-2.281-6.599-6.607-6.599-11.313C3.384,9.782,9.216,3.95,16.384,3.95
		 M16.384,1.95c-8.284,0-15,6.716-15,15c0,6.432,4.048,11.916,9.736,14.048l3.008-8.318c-0.034-0.012-0.068-0.025-0.1-0.04
		c-1.521-0.63-2.704-1.813-3.334-3.334c-0.63-1.518-0.63-3.193,0-4.714c0.63-1.518,1.813-2.702,3.334-3.332
		c0.758-0.315,1.558-0.472,2.355-0.472s1.599,0.156,2.356,0.472c1.52,0.63,2.704,1.814,3.334,3.332c0.63,1.521,0.63,3.196,0,4.714
		c-0.63,1.521-1.814,2.704-3.334,3.334c-0.017,0.009-0.032,0.015-0.048,0.021l3.008,8.32c5.66-2.146,9.684-7.618,9.684-14.03
		C31.384,8.666,24.668,1.95,16.384,1.95"/>
</g>
</svg>
