<?xml version="1.0" encoding="utf-8"?>
<!-- Generator: Adobe Illustrator 15.0.0, SVG Export Plug-In . SVG Version: 6.00 Build 0)  -->
<!DOCTYPE svg PUBLIC "-//W3C//DTD SVG 1.1//EN" "http://www.w3.org/Graphics/SVG/1.1/DTD/svg11.dtd">
<svg version="1.1" id="Слой_1" xmlns="http://www.w3.org/2000/svg" xmlns:xlink="http://www.w3.org/1999/xlink" x="0px" y="0px"
	 width="32px" height="32px" viewBox="0 0 32 32" enable-background="new 0 0 32 32" xml:space="preserve">
<g>
	<defs>
		<rect id="SVGID_1_" x="-138.083" y="-99" width="1303.165" height="359.983"/>
	</defs>
	<clipPath id="SVGID_2_">
		<use xlink:href="#SVGID_1_"  overflow="visible"/>
	</clipPath>
	<g clip-path="url(#SVGID_2_)">
		<path fill="#37929b" d="M15.917,3.474c7.168,0,13,5.832,13,13s-5.832,13-13,13s-13-5.832-13-13S8.749,3.474,15.917,3.474
			 M15.917,1.474c-8.284,0-15,6.716-15,15s6.716,15,15,15s15-6.716,15-15S24.201,1.474,15.917,1.474"/>
	</g>
</g>
<g>
	<defs>
		<rect id="SVGID_3_" x="-138.083" y="-99" width="1303.165" height="359.983"/>
	</defs>
	<clipPath id="SVGID_4_">
		<use xlink:href="#SVGID_3_"  overflow="visible"/>
	</clipPath>
	<g clip-path="url(#SVGID_4_)">
		<path fill="#37929b" d="M14.917,17.974c-0.276,0-0.5-0.224-0.5-0.5V8.494c0-0.276,0.224-0.5,0.5-0.5s0.5,0.224,0.5,0.5v8.979
			C15.417,17.75,15.193,17.974,14.917,17.974z"/>
	</g>
</g>
<g>
	<defs>
		<rect id="SVGID_5_" x="-138.083" y="-99" width="1303.165" height="359.983"/>
	</defs>
	<clipPath id="SVGID_6_">
		<use xlink:href="#SVGID_5_"  overflow="visible"/>
	</clipPath>
	<g clip-path="url(#SVGID_6_)">
		<path fill="#37929b" d="M25.409,17.974H14.917c-0.276,0-0.5-0.224-0.5-0.5s0.224-0.5,0.5-0.5h10.492c0.276,0,0.5,0.224,0.5,0.5
			S25.686,17.974,25.409,17.974z"/>
	</g>
</g>
</svg>
