<?xml version="1.0" encoding="utf-8"?>
<!-- Generator: Adobe Illustrator 15.0.0, SVG Export Plug-In . SVG Version: 6.00 Build 0)  -->
<!DOCTYPE svg PUBLIC "-//W3C//DTD SVG 1.1//EN" "http://www.w3.org/Graphics/SVG/1.1/DTD/svg11.dtd">
<svg version="1.1" id="Слой_1" xmlns="http://www.w3.org/2000/svg" xmlns:xlink="http://www.w3.org/1999/xlink" x="0px" y="0px"
	 width="32px" height="32px" viewBox="0 0 32 32" enable-background="new 0 0 32 32" xml:space="preserve">
<g>
	<defs>
		<rect id="SVGID_1_" x="-369.417" y="-99.667" width="1303.166" height="359.983"/>
	</defs>
	<clipPath id="SVGID_2_">
		<use xlink:href="#SVGID_1_"  overflow="visible"/>
	</clipPath>
	<path clip-path="url(#SVGID_2_)" fill="#37929b" d="M9.813,23.252l-0.963,0.176v6.266c0,0.611,0.502,1.113,1.116,1.113h15.021
		c0.613,0,1.113-0.502,1.113-1.113V13.36c0-0.37-5.409-5.58-5.958-5.532h-1.413l-0.236,0.938h1.532v5.006h5.1v16.108H9.813"/>
</g>
<g>
	<defs>
		<rect id="SVGID_3_" x="-369.417" y="-99.667" width="1303.166" height="359.983"/>
	</defs>
	<clipPath id="SVGID_4_">
		<use xlink:href="#SVGID_3_"  overflow="visible"/>
	</clipPath>
	<rect x="18.167" y="15.629" clip-path="url(#SVGID_4_)" fill="#37929b" width="0.16" height="1.406"/>
</g>
<g>
	<defs>
		<rect id="SVGID_5_" x="-369.417" y="-99.667" width="1303.166" height="359.983"/>
	</defs>
	<clipPath id="SVGID_6_">
		<use xlink:href="#SVGID_5_"  overflow="visible"/>
	</clipPath>
	<rect x="18.167" y="19.053" clip-path="url(#SVGID_6_)" fill="#37929b" width="4.802" height="1.406"/>
</g>
<g>
	<defs>
		<rect id="SVGID_7_" x="-369.417" y="-99.667" width="1303.166" height="359.983"/>
	</defs>
	<clipPath id="SVGID_8_">
		<use xlink:href="#SVGID_7_"  overflow="visible"/>
	</clipPath>
	<polygon clip-path="url(#SVGID_8_)" fill="#37929b" points="22.969,23.881 11.771,23.881 11.771,23.271 18.367,23.178 
		18.415,22.475 22.969,22.475 	"/>
</g>
<g>
	<defs>
		<rect id="SVGID_9_" x="-369.417" y="-99.667" width="1303.166" height="359.983"/>
	</defs>
	<clipPath id="SVGID_10_">
		<use xlink:href="#SVGID_9_"  overflow="visible"/>
	</clipPath>
	<rect x="11.771" y="25.9" clip-path="url(#SVGID_10_)" fill="#37929b" width="11.198" height="1.404"/>
</g>
<g>
	<defs>
		<rect id="SVGID_11_" x="-369.417" y="-99.667" width="1303.166" height="359.983"/>
	</defs>
	<clipPath id="SVGID_12_">
		<use xlink:href="#SVGID_11_"  overflow="visible"/>
	</clipPath>
	<path clip-path="url(#SVGID_12_)" fill="#37929b" d="M12.931,0.809H2.755c-0.614,0-1.116,0.503-1.116,1.114v20.75
		c0,0.611,0.502,1.113,1.116,1.113h15.021c0.611,0,1.113-0.502,1.113-1.113V6.339C18.889,5.971,13.479,0.761,12.931,0.809
		 M17.913,22.861H2.601V1.748h10.213v5.006h5.1V22.861z"/>
</g>
<g>
	<defs>
		<rect id="SVGID_13_" x="-369.417" y="-99.667" width="1303.166" height="359.983"/>
	</defs>
	<clipPath id="SVGID_14_">
		<use xlink:href="#SVGID_13_"  overflow="visible"/>
	</clipPath>
	<rect x="4.559" y="8.612" clip-path="url(#SVGID_14_)" fill="#37929b" width="6.557" height="1.405"/>
</g>
<g>
	<defs>
		<rect id="SVGID_15_" x="-369.417" y="-99.667" width="1303.166" height="359.983"/>
	</defs>
	<clipPath id="SVGID_16_">
		<use xlink:href="#SVGID_15_"  overflow="visible"/>
	</clipPath>
	<rect x="4.559" y="12.034" clip-path="url(#SVGID_16_)" fill="#37929b" width="11.198" height="1.405"/>
</g>
<g>
	<defs>
		<rect id="SVGID_17_" x="-369.417" y="-99.667" width="1303.166" height="359.983"/>
	</defs>
	<clipPath id="SVGID_18_">
		<use xlink:href="#SVGID_17_"  overflow="visible"/>
	</clipPath>
	<rect x="4.559" y="15.458" clip-path="url(#SVGID_18_)" fill="#37929b" width="11.198" height="1.406"/>
</g>
<g>
	<defs>
		<rect id="SVGID_19_" x="-369.417" y="-99.667" width="1303.166" height="359.983"/>
	</defs>
	<clipPath id="SVGID_20_">
		<use xlink:href="#SVGID_19_"  overflow="visible"/>
	</clipPath>
	<rect x="4.559" y="18.881" clip-path="url(#SVGID_20_)" fill="#37929b" width="11.198" height="1.406"/>
</g>
<g>
	<defs>
		<rect id="SVGID_21_" x="-369.417" y="-99.667" width="1303.166" height="359.983"/>
	</defs>
	<clipPath id="SVGID_22_">
		<use xlink:href="#SVGID_21_"  overflow="visible"/>
	</clipPath>
	<path clip-path="url(#SVGID_22_)" fill="#37929b" d="M29.896,22.953l-0.557-0.555c-0.397-0.398-0.397-1.051,0-1.447
		c0.396-0.398,1.048-0.398,1.444,0l0.558,0.557c0.398,0.398,0.398,1.047,0,1.445C30.943,23.352,30.293,23.352,29.896,22.953"/>
</g>
<g>
	<defs>
		<rect id="SVGID_23_" x="-369.417" y="-99.667" width="1303.166" height="359.983"/>
	</defs>
	<clipPath id="SVGID_24_">
		<use xlink:href="#SVGID_23_"  overflow="visible"/>
	</clipPath>
	<polygon clip-path="url(#SVGID_24_)" fill="#37929b" points="22.479,29.619 23.139,27.318 24.803,29.041 	"/>
</g>
</svg>
