<?xml version="1.0" encoding="utf-8"?>
<!-- Generator: Adobe Illustrator 15.0.0, SVG Export Plug-In . SVG Version: 6.00 Build 0)  -->
<!DOCTYPE svg PUBLIC "-//W3C//DTD SVG 1.1//EN" "http://www.w3.org/Graphics/SVG/1.1/DTD/svg11.dtd">
<svg version="1.1" id="Слой_1" xmlns="http://www.w3.org/2000/svg" xmlns:xlink="http://www.w3.org/1999/xlink" x="0px" y="0px"
	 width="32px" height="32px" viewBox="0 0 32 32" enable-background="new 0 0 32 32" xml:space="preserve">
<g>
	<defs>
		<rect id="SVGID_1_" x="-601.75" y="-98.668" width="1303.165" height="359.984"/>
	</defs>
	<clipPath id="SVGID_2_">
		<use xlink:href="#SVGID_1_"  overflow="visible"/>
	</clipPath>
	<polygon clip-path="url(#SVGID_2_)" fill="#37929b" points="19.363,16.621 19.363,3.805 13.363,3.805 13.363,16.621 11.363,16.621 
		11.363,1.805 21.363,1.805 21.363,16.621 	"/>
</g>
<g>
	<defs>
		<rect id="SVGID_3_" x="-601.75" y="-98.668" width="1303.165" height="359.984"/>
	</defs>
	<clipPath id="SVGID_4_">
		<use xlink:href="#SVGID_3_"  overflow="visible"/>
	</clipPath>
	<path clip-path="url(#SVGID_4_)" fill="#37929b" d="M19.363,18.621v-2h7.676L16.361,27.293L5.688,16.621h7.676v2 M10.516,18.621
		l5.844,5.844l5.848-5.844"/>
</g>
<g>
	<defs>
		<rect id="SVGID_5_" x="-601.75" y="-98.668" width="1303.165" height="359.984"/>
	</defs>
	<clipPath id="SVGID_6_">
		<use xlink:href="#SVGID_5_"  overflow="visible"/>
	</clipPath>
	<path clip-path="url(#SVGID_6_)" fill="#37929b" d="M1.363,22.867v5.691c0,1.785,1.463,3.25,3.25,3.25h23.5
		c1.789,0,3.25-1.465,3.25-3.25v-5.691h-3v5.691c0,0.129-0.119,0.25-0.25,0.25h-23.5c-0.129,0-0.25-0.121-0.25-0.25v-5.691H1.363z"
		/>
</g>
</svg>
