<?xml version="1.0" encoding="utf-8"?>
<!-- Generator: Adobe Illustrator 15.0.0, SVG Export Plug-In . SVG Version: 6.00 Build 0)  -->
<!DOCTYPE svg PUBLIC "-//W3C//DTD SVG 1.1//EN" "http://www.w3.org/Graphics/SVG/1.1/DTD/svg11.dtd">
<svg version="1.1" id="Слой_1" xmlns="http://www.w3.org/2000/svg" xmlns:xlink="http://www.w3.org/1999/xlink" x="0px" y="0px"
	 width="32px" height="32px" viewBox="0 0 32 32" enable-background="new 0 0 32 32" xml:space="preserve">
<g>
	<defs>
		<rect id="SVGID_1_" x="-787.083" y="-99.484" width="1303.165" height="359.984"/>
	</defs>
	<clipPath id="SVGID_2_">
		<use xlink:href="#SVGID_1_"  overflow="visible"/>
	</clipPath>
	<g clip-path="url(#SVGID_2_)">
		<path fill="#37929b" d="M9.156,27.348v2.188c0,0.801,0.656,1.457,1.457,1.457h19.609c0.801,0,1.453-0.656,1.453-1.457V8.215
			c0-0.484-7.063-7.285-7.777-7.223H10.613c-0.801,0-1.457,0.654-1.457,1.453V19.65l1.258,0.01V2.219h13.328v6.535h6.66v21.027
			H10.414v-2.41L9.156,27.348z"/>
	</g>
</g>
<g>
	<defs>
		<rect id="SVGID_3_" x="-787.083" y="-99.484" width="1303.165" height="359.984"/>
	</defs>
	<clipPath id="SVGID_4_">
		<use xlink:href="#SVGID_3_"  overflow="visible"/>
	</clipPath>
	<g clip-path="url(#SVGID_4_)">
		<path fill="#37929b" d="M16.551,20.285l-0.68-0.445c0.391-0.699,0.805-1.473,1.234-2.313 M17.109,17.527
			c0.57-1.121,1.223-2.385,1.742-3.652l0.207-0.5c-0.68-2.59-1.086-4.664-0.723-6.008c0.098-0.348,0.504-0.561,0.938-0.561
			l0.262,0.004h0.051c0.594-0.01,0.875,0.744,0.902,1.037c0.055,0.492-0.172,1.316-0.172,1.316c0-0.332,0.012-0.873-0.199-1.34
			c-0.246-0.539-0.477-0.859-0.691-0.91c-0.105,0.07-0.207,0.217-0.246,0.5c-0.07,0.395-0.094,0.895-0.094,1.152
			c0,0.91,0.18,2.109,0.531,3.352c0.066-0.193,0.125-0.377,0.176-0.551c0.066-0.273,0.531-2.074,0.531-2.074
			s-0.117,2.398-0.277,3.125c-0.039,0.154-0.074,0.305-0.117,0.461c0.582,1.621,1.516,3.07,2.633,4.111
			c0.441,0.412,0.996,0.744,1.523,1.045c1.148-0.164,2.207-0.24,3.086-0.23c1.172,0.016,2.031,0.188,2.379,0.531
			c0.172,0.168,0.238,0.367,0.262,0.594c0.004,0.086-0.039,0.293-0.051,0.344c0.012-0.061,0.012-0.369-0.926-0.668
			c-0.742-0.238-2.125-0.23-3.789-0.053c1.922,0.939,3.793,1.408,4.387,1.127c0.145-0.07,0.32-0.313,0.32-0.313
			s-0.102,0.477-0.18,0.596c-0.094,0.127-0.285,0.268-0.461,0.314c-0.938,0.25-3.375-0.328-5.504-1.543
			c-2.027,0.297-4.223,0.813-6.125,1.383c-0.328,0.1-0.629,0.066-0.934,0.168 M17.855,17.91c-0.375,0.707-0.742,1.367-1.086,1.975
			c-0.016,0.029-0.031,0.061-0.047,0.09c0.055-0.025,0.117-0.049,0.176-0.074c1.922-0.783,3.973-1.291,5.93-1.654
			c-0.27-0.188-0.531-0.387-0.781-0.594c-1.113-0.941-1.957-2.113-2.57-3.35C19.082,15.352,18.621,16.467,17.855,17.91"/>
	</g>
</g>
<g>
	<defs>
		<rect id="SVGID_5_" x="-787.083" y="-99.484" width="1303.165" height="359.984"/>
	</defs>
	<clipPath id="SVGID_6_">
		<use xlink:href="#SVGID_5_"  overflow="visible"/>
	</clipPath>
	<g clip-path="url(#SVGID_6_)">
		<path fill="#37929b" d="M19.105,27.406H1.426v-7.842h17.68V27.406z M1.926,26.906h16.68v-6.842H1.926V26.906z"/>
	</g>
</g>
<g enable-background="new    ">
	<path fill="#37929b" d="M5.083,21.647c0.285-0.049,0.685-0.085,1.248-0.085c0.57,0,0.976,0.109,1.248,0.333
		c0.267,0.2,0.436,0.539,0.436,0.939c0,0.405-0.127,0.745-0.375,0.969c-0.315,0.291-0.781,0.431-1.327,0.431
		c-0.121,0-0.23-0.007-0.315-0.024v1.466H5.083V21.647z M5.997,23.501c0.079,0.019,0.17,0.024,0.309,0.024
		c0.491,0,0.793-0.248,0.793-0.66c0-0.376-0.26-0.6-0.727-0.6c-0.182,0-0.309,0.012-0.375,0.03V23.501z"/>
	<path fill="#37929b" d="M8.605,21.653c0.339-0.061,0.781-0.091,1.242-0.091c0.782,0,1.291,0.146,1.678,0.437
		c0.424,0.314,0.69,0.812,0.69,1.538c0,0.781-0.285,1.321-0.672,1.654c-0.43,0.357-1.09,0.526-1.89,0.526
		c-0.479,0-0.824-0.03-1.048-0.061V21.653z M9.526,24.979c0.079,0.018,0.212,0.018,0.321,0.018c0.842,0.006,1.394-0.454,1.394-1.43
		c0-0.848-0.497-1.296-1.296-1.296c-0.2,0-0.339,0.018-0.418,0.036V24.979z"/>
	<path fill="#37929b" d="M12.831,21.593h2.49v0.757h-1.569v0.934h1.466v0.751h-1.466v1.642h-0.921V21.593z"/>
</g>
</svg>
