<?xml version="1.0" encoding="utf-8"?>
<!-- Generator: Adobe Illustrator 15.0.0, SVG Export Plug-In . SVG Version: 6.00 Build 0)  -->
<!DOCTYPE svg PUBLIC "-//W3C//DTD SVG 1.1//EN" "http://www.w3.org/Graphics/SVG/1.1/DTD/svg11.dtd">
<svg version="1.1" id="Слой_1" xmlns="http://www.w3.org/2000/svg" xmlns:xlink="http://www.w3.org/1999/xlink" x="0px" y="0px"
	 width="32px" height="32px" viewBox="0 0 32 32" enable-background="new 0 0 32 32" xml:space="preserve">
<g>
	<defs>
		<rect id="SVGID_1_" x="-1019.374" y="-98.984" width="1303.165" height="359.984"/>
	</defs>
	<clipPath id="SVGID_2_">
		<use xlink:href="#SVGID_1_"  overflow="visible"/>
	</clipPath>
	<g clip-path="url(#SVGID_2_)">
		<path fill="#37929b" d="M15.092,22.229c-0.604,0-0.817-0.478-1.112-1.14c-0.183-0.407-0.4-0.557-0.928-0.637
			c-0.645-0.101-1.014,0.052-1.389,0.644c-0.248,0.388-0.506,0.735-0.961,0.735c-0.249,0-0.497-0.106-0.867-0.301l-0.376-0.194
			c-0.205-0.105-0.41-0.21-0.612-0.319c-0.475-0.259-0.653-0.699-0.491-1.209c0.094-0.29,0.188-0.577,0.277-0.865
			c0.024-0.068,0.04-0.115,0.051-0.166c0.021-0.08-0.03-0.342-0.309-0.703c-0.314-0.409-0.647-0.6-0.773-0.6
			c-0.189,0.02-0.371,0.047-0.554,0.074L6.66,17.604c-0.645,0.09-1.041-0.159-1.241-0.775l-0.045-0.141
			c-0.123-0.382-0.244-0.763-0.363-1.147c-0.162-0.542,0.028-0.992,0.523-1.239c0.105-0.053,0.21-0.109,0.315-0.166
			c0.179-0.096,0.358-0.192,0.543-0.275c0.229-0.1,0.305-0.215,0.294-0.442c-0.005-0.063-0.008-0.171,0.028-0.287
			c0.188-0.616-0.003-1.01-0.708-1.451c-0.835-0.527-0.803-0.933-0.403-1.7l0.531-1.019c0.255-0.489,0.622-0.591,0.885-0.591
			c0.124,0,0.254,0.023,0.389,0.069c0.247,0.085,0.49,0.162,0.736,0.241l0.125,0.04c0.114,0.038,0.157,0.056,0.2,0.061
			c0,0,0,0,0.001,0c0.143,0,0.51-0.2,0.854-0.577c0.282-0.308,0.365-0.539,0.36-0.597l-0.14-1.015
			c-0.066-0.513,0.183-0.916,0.667-1.078c0.456-0.148,0.911-0.288,1.37-0.428l0.116-0.036c0.466-0.142,0.886,0.039,1.129,0.479
			c0.062,0.112,0.12,0.228,0.178,0.345c0.105,0.211,0.204,0.411,0.33,0.575c0.075,0.095,0.241,0.194,0.454,0.27
			c0.033,0.013,0.103,0.013,0.125,0.013l0.149-0.002c0.089,0,0.207,0.004,0.327,0.039c0.334,0.095,0.533,0.111,0.916-0.428
			c0.399-0.566,0.664-0.94,1.14-0.94c0.298,0,0.58,0.146,1.09,0.413l0.088,0.049c1.244,0.611,1.418,0.802,0.979,2.031l-0.095,0.264
			c-0.155,0.457-0.068,0.632,0.16,0.813c0.101,0.078,0.172,0.163,0.215,0.256c0.173,0.349,0.396,0.489,0.787,0.489
			c0.159,0,0.329-0.023,0.507-0.058c0.271-0.052,0.473-0.082,0.628-0.082c0.662,0,0.813,0.48,1.004,1.087l0.324,1.021
			c0.162,0.523-0.024,0.961-0.51,1.204l-0.392,0.202c-0.161,0.084-0.323,0.169-0.487,0.251c-0.203,0.098-0.275,0.208-0.273,0.411
			c0.001,0.275,0.002,0.505-0.061,0.732c-0.098,0.361,0.003,0.577,0.397,0.856c1.139,0.805,1.194,1.039,0.542,2.277l-0.125,0.244
			c-0.087,0.171-0.174,0.343-0.269,0.507c-0.252,0.445-0.69,0.624-1.176,0.467l-0.382-0.121c-0.208-0.068-0.417-0.136-0.625-0.195
			c-0.063-0.019-0.132-0.038-0.178-0.047c-0.143,0.097-0.282,0.205-0.421,0.313c-0.172,0.134-0.344,0.268-0.527,0.387
			c-0.2,0.131-0.272,0.268-0.17,0.725c0.027,0.138,0.049,0.267,0.062,0.396c0.137,0.997-0.021,1.246-0.989,1.559l-0.351,0.106
			l-0.264-0.31l0.114,0.357C15.617,22.146,15.34,22.229,15.092,22.229z M12.721,19.676c0.138,0,0.285,0.012,0.443,0.035
			c0.776,0.118,1.211,0.429,1.5,1.073c0.263,0.591,0.34,0.695,0.427,0.695c0.144,0,0.429-0.091,0.73-0.187h0.001l0.508-0.157
			c0.542-0.175,0.542-0.175,0.463-0.753c-0.012-0.118-0.03-0.224-0.051-0.329c-0.068-0.303-0.232-1.032,0.495-1.508
			c0.166-0.108,0.32-0.229,0.476-0.35c0.175-0.138,0.351-0.273,0.538-0.395c0.2-0.126,0.496-0.069,0.697-0.011
			c0.248,0.071,0.464,0.141,0.681,0.211l0.378,0.12c0.093,0.031,0.134,0.164,0.297-0.124c0.089-0.154,0.17-0.314,0.251-0.475
			l0.13-0.252c0.421-0.8,0.421-0.8-0.311-1.317c-0.41-0.29-0.929-0.778-0.688-1.666c0.036-0.129,0.035-0.29,0.034-0.459
			c-0.005-0.561,0.234-0.938,0.692-1.159l0.872-0.45c0.159-0.079,0.185-0.14,0.132-0.308l-0.323-1.02
			c-0.056-0.179-0.16-0.509-0.221-0.56c-0.18-0.002-0.345,0.023-0.555,0.063c-0.982,0.189-1.715-0.043-2.113-0.846
			c-0.684-0.527-0.559-1.186-0.405-1.635l0.097-0.272c0.246-0.688,0.246-0.688-0.646-1.129c-0.412-0.215-0.69-0.36-0.804-0.36
			c-0.088,0-0.332,0.346-0.528,0.623c-0.319,0.451-0.875,0.959-1.732,0.717c-0.032-0.009-0.085-0.01-0.122-0.01l-0.149,0.002
			c-0.111,0-0.244-0.007-0.381-0.057c-0.242-0.086-0.58-0.247-0.79-0.515c-0.173-0.225-0.294-0.468-0.411-0.703
			c-0.052-0.105-0.104-0.211-0.162-0.313c-0.079-0.143-0.137-0.143-0.165-0.143l-0.205,0.051c-0.456,0.14-0.907,0.278-1.355,0.424
			c-0.126,0.042-0.181,0.092-0.158,0.271l0.141,1.021c0.048,0.422-0.258,0.864-0.524,1.162C9.554,9.074,8.969,9.533,8.477,9.533
			l-0.11-0.008c-0.087-0.011-0.18-0.04-0.269-0.071L7.916,9.396c-0.252-0.081-0.5-0.16-0.75-0.246
			C7.11,9.131,7.06,9.121,7.019,9.121c-0.042,0-0.122,0-0.219,0.188l-0.531,1.018c-0.134,0.257-0.197,0.412-0.189,0.462
			c0.006,0.015,0.047,0.082,0.326,0.257c0.623,0.39,1.408,1.054,1.026,2.306c0.031,0.57-0.225,0.973-0.737,1.195
			c-0.165,0.074-0.328,0.162-0.49,0.249c-0.111,0.06-0.223,0.12-0.335,0.176c-0.147,0.074-0.203,0.142-0.14,0.35
			c0.117,0.379,0.238,0.758,0.36,1.138l0.044,0.139c0.088,0.273,0.169,0.274,0.283,0.273c0.044,0,0.092-0.004,0.145-0.011
			l0.376-0.054c0.193-0.029,0.387-0.058,0.581-0.079c0.002,0,0.005,0,0.008,0c0.584,0,1.114,0.459,1.444,0.889
			c0.178,0.232,0.578,0.828,0.441,1.343c-0.017,0.071-0.041,0.149-0.07,0.227c-0.083,0.27-0.177,0.561-0.271,0.851
			c-0.052,0.163-0.022,0.235,0.135,0.321c0.196,0.106,0.396,0.209,0.597,0.312l0.382,0.197c0.133,0.069,0.408,0.215,0.518,0.215
			c0.03,0,0.113-0.051,0.328-0.388C11.475,19.99,11.997,19.676,12.721,19.676z M13.586,17.451L13.586,17.451
			c-1.666,0-3.136-1.055-3.659-2.626c-0.321-0.973-0.244-2.014,0.219-2.933c0.46-0.913,1.246-1.591,2.211-1.909
			c0.407-0.134,0.826-0.203,1.244-0.203c1.661,0,3.077,1.037,3.608,2.641c0.662,2.005-0.43,4.175-2.434,4.837
			C14.392,17.386,13.991,17.451,13.586,17.451z M13.602,10.531c-0.338,0-0.678,0.056-1.009,0.165
			c-0.775,0.255-1.406,0.8-1.776,1.535c-0.373,0.739-0.435,1.577-0.177,2.359c0.414,1.243,1.625,2.112,2.947,2.112l0,0
			c0.325,0,0.646-0.052,0.954-0.155c1.612-0.533,2.49-2.277,1.958-3.89C16.07,11.366,14.933,10.531,13.602,10.531z"/>
	</g>
</g>
<g>
	<defs>
		<rect id="SVGID_3_" x="-1019.374" y="-98.984" width="1303.165" height="359.984"/>
	</defs>
	<clipPath id="SVGID_4_">
		<use xlink:href="#SVGID_3_"  overflow="visible"/>
	</clipPath>
	<g clip-path="url(#SVGID_4_)">
		<path fill="#37929b" d="M13.568,26.246c-6.961,0-12.625-5.665-12.625-12.629c0-6.962,5.664-12.627,12.625-12.627
			c6.964,0,12.629,5.665,12.629,12.627C26.197,20.581,20.532,26.246,13.568,26.246z M13.568,1.99
			c-6.41,0-11.625,5.216-11.625,11.627c0,6.412,5.215,11.629,11.625,11.629c6.412,0,11.629-5.217,11.629-11.629
			C25.197,7.206,19.98,1.99,13.568,1.99z"/>
	</g>
</g>
<g>
	<defs>
		<rect id="SVGID_5_" x="-1019.374" y="-98.984" width="1303.165" height="359.984"/>
	</defs>
	<clipPath id="SVGID_6_">
		<use xlink:href="#SVGID_5_"  overflow="visible"/>
	</clipPath>
	<g clip-path="url(#SVGID_6_)">
		
			<rect x="20.221" y="26.343" transform="matrix(0.707 0.7072 -0.7072 0.707 26.8322 -11.0834)" fill="#37929b" width="13.144" height="1"/>
	</g>
</g>
</svg>
