<?xml version="1.0" encoding="utf-8"?>
<!-- Generator: Adobe Illustrator 15.0.0, SVG Export Plug-In . SVG Version: 6.00 Build 0)  -->
<!DOCTYPE svg PUBLIC "-//W3C//DTD SVG 1.1//EN" "http://www.w3.org/Graphics/SVG/1.1/DTD/svg11.dtd">
<svg version="1.1" id="Слой_1" xmlns="http://www.w3.org/2000/svg" xmlns:xlink="http://www.w3.org/1999/xlink" x="0px" y="0px"
	 width="32px" height="32px" viewBox="0 0 32 32" enable-background="new 0 0 32 32" xml:space="preserve">
<g>
	<defs>
		<rect id="SVGID_1_" x="-740.041" y="-98.985" width="1303.166" height="359.983"/>
	</defs>
	<clipPath id="SVGID_2_">
		<use xlink:href="#SVGID_1_"  overflow="visible"/>
	</clipPath>
	<path clip-path="url(#SVGID_2_)" fill="#37929b" d="M28.879,31.488c-0.422,0-0.844-0.158-1.16-0.479l-6.008-6.053
		c-0.305-0.311-0.473-0.721-0.473-1.158s0.172-0.848,0.48-1.156l1.797-1.785c0.637-0.635,1.676-0.633,2.309,0.008l6.008,6.055
		c0.633,0.639,0.633,1.676-0.008,2.311l-1.793,1.783C29.711,31.33,29.293,31.488,28.879,31.488 M24.668,21.385
		c-0.172,0-0.328,0.066-0.449,0.184l-1.793,1.785c-0.121,0.117-0.188,0.277-0.188,0.447c0,0.172,0.063,0.332,0.184,0.451
		l6.004,6.051c0.121,0.121,0.281,0.186,0.453,0.186c0.125,0.002,0.328-0.064,0.449-0.182l1.793-1.785
		c0.25-0.246,0.25-0.652,0.004-0.898l-6.004-6.053C25,21.451,24.883,21.379,24.668,21.385"/>
</g>
<g>
	<defs>
		<rect id="SVGID_3_" x="-740.041" y="-98.985" width="1303.166" height="359.983"/>
	</defs>
	<clipPath id="SVGID_4_">
		<use xlink:href="#SVGID_3_"  overflow="visible"/>
	</clipPath>
	
		<circle clip-path="url(#SVGID_4_)" fill="none" stroke="#37929b" stroke-width="0.5" stroke-miterlimit="10" cx="14.386" cy="13.568" r="12.08"/>
</g>
<g>
	<defs>
		<rect id="SVGID_5_" x="-740.041" y="-98.985" width="1303.166" height="359.983"/>
	</defs>
	<clipPath id="SVGID_6_">
		<use xlink:href="#SVGID_5_"  overflow="visible"/>
	</clipPath>
	
		<circle clip-path="url(#SVGID_6_)" fill="none" stroke="#37929b" stroke-width="0.5" stroke-miterlimit="10" cx="14.386" cy="13.568" r="7.473"/>
</g>
</svg>
