<?xml version="1.0" encoding="utf-8"?>
<!-- Generator: Adobe Illustrator 15.0.0, SVG Export Plug-In . SVG Version: 6.00 Build 0)  -->
<!DOCTYPE svg PUBLIC "-//W3C//DTD SVG 1.1//EN" "http://www.w3.org/Graphics/SVG/1.1/DTD/svg11.dtd">
<svg version="1.1" id="Слой_1" xmlns="http://www.w3.org/2000/svg" xmlns:xlink="http://www.w3.org/1999/xlink" x="0px" y="0px"
	 width="32px" height="32px" viewBox="0 0 32 32" enable-background="new 0 0 32 32" xml:space="preserve">
<g>
	<defs>
		<rect id="SVGID_1_" x="-1066.083" y="-99.484" width="1303.165" height="359.984"/>
	</defs>
	<clipPath id="SVGID_2_">
		<use xlink:href="#SVGID_1_"  overflow="visible"/>
	</clipPath>
	<g clip-path="url(#SVGID_2_)">
		<path fill="#37929b" d="M18.92,31.492c-0.979,0-1.33-0.782-1.86-1.968c-0.36-0.804-0.806-1.112-1.834-1.269
			c-1.255-0.19-1.982,0.114-2.71,1.259c-0.419,0.66-0.856,1.253-1.593,1.253c-0.415,0-0.845-0.184-1.495-0.523l-0.597-0.311
			c-0.402-0.207-0.803-0.415-1.202-0.63c-0.784-0.431-1.076-1.154-0.805-1.988l0.546-1.697c0.021-0.062,0.042-0.123,0.056-0.185
			c0.063-0.244-0.1-0.791-0.603-1.443c-0.581-0.752-1.232-1.158-1.552-1.158c-0.373,0.037-0.714,0.09-1.055,0.142
			c-0.224,0.034-0.447,0.068-0.671,0.098c-1.424,0.194-1.86-0.654-2.065-1.288c-0.255-0.779-0.502-1.563-0.741-2.349
			c-0.274-0.88,0.037-1.622,0.855-2.033c0.18-0.091,0.359-0.187,0.539-0.283c0.337-0.18,0.674-0.359,1.023-0.513
			c0.478-0.212,0.663-0.496,0.636-0.98c-0.006-0.14-0.005-0.298,0.044-0.46c0.368-1.205-0.014-2.005-1.362-2.853
			c-1.388-0.873-1.385-1.479-0.67-2.855l0.965-1.855c0.417-0.809,1.015-0.979,1.442-0.979c0.207,0,0.427,0.04,0.655,0.118
			C5.255,6.873,5.643,6.997,6.03,7.122l0.506,0.165c0.1,0.034,0.199,0.071,0.3,0.085c0.001,0,0.002,0,0.003,0
			c0.374,0,1.104-0.429,1.745-1.146C9.072,5.68,9.271,5.225,9.249,5.033C9.21,4.702,9.162,4.37,9.114,4.038
			C9.073,3.753,9.032,3.468,8.996,3.184c-0.11-0.857,0.289-1.501,1.093-1.766c0.895-0.292,1.796-0.571,2.694-0.845
			c0.175-0.054,0.348-0.081,0.512-0.081c0.39,0,0.939,0.15,1.336,0.867c0.109,0.198,0.21,0.401,0.312,0.604
			c0.197,0.398,0.384,0.774,0.628,1.091c0.157,0.202,0.481,0.401,0.91,0.559c0.074,0.027,0.185,0.031,0.284,0.031l0.276-0.003
			c0.157,0,0.346,0.007,0.539,0.063c0.78,0.219,1.252,0.019,1.866-0.851c0.723-1.02,1.158-1.635,1.931-1.635
			c0.499,0,1.001,0.262,1.911,0.737c2.423,1.204,2.57,1.5,1.838,3.558l-0.17,0.48c-0.283,0.819-0.191,1.261,0.349,1.685
			c0.112,0.089,0.253,0.215,0.337,0.401c0.463,0.934,1.083,1.171,2.556,0.888c0.47-0.091,0.819-0.147,1.111-0.147
			c1.063,0,1.31,0.778,1.651,1.854l0.585,1.857c0.269,0.871-0.026,1.569-0.829,1.973c-0.25,0.125-0.497,0.254-0.743,0.383
			c-0.287,0.15-0.573,0.3-0.862,0.443c-0.429,0.211-0.603,0.476-0.6,0.914v0.141c0.002,0.354,0.004,0.756-0.1,1.14
			c-0.202,0.745,0.005,1.206,0.793,1.759c2.015,1.422,2.085,1.713,0.938,3.898l-0.237,0.462c-0.156,0.308-0.313,0.615-0.483,0.914
			c-0.409,0.711-0.967,0.859-1.364,0.859c-0.18,0-0.368-0.03-0.561-0.092l-0.672-0.216c-0.39-0.127-0.778-0.254-1.173-0.365
			c-0.189-0.055-0.352-0.102-0.436-0.102c-0.237,0.168-0.534,0.399-0.831,0.631c-0.306,0.236-0.611,0.474-0.933,0.685
			c-0.48,0.316-0.575,0.685-0.392,1.513c0.047,0.231,0.084,0.458,0.113,0.684c0.235,1.75,0.001,2.124-1.676,2.659l-1.18,0.383
			l-0.001-0.008C19.707,31.379,19.287,31.492,18.92,31.492z M14.604,27.206c0.24,0,0.496,0.02,0.771,0.062
			c1.14,0.173,2.018,0.554,2.597,1.849c0.544,1.214,0.684,1.376,0.948,1.376c0.27,0,0.722-0.138,1.382-0.348l0.929-0.303v0.007
			c1.116-0.356,1.115-0.368,0.954-1.565c-0.026-0.203-0.06-0.406-0.101-0.605c-0.115-0.521-0.39-1.758,0.82-2.556
			c0.301-0.197,0.585-0.419,0.868-0.64c0.321-0.249,0.642-0.497,0.98-0.715c0.311-0.194,0.775-0.101,1.105-0.006
			c0.474,0.134,0.875,0.265,1.278,0.396l0.661,0.212c0.267,0.087,0.473,0.186,0.757-0.311c0.162-0.284,0.312-0.577,0.46-0.87
			l0.233-0.455C30.09,21.13,30.09,21.13,28.63,20.1c-0.704-0.494-1.594-1.326-1.183-2.838c0.068-0.252,0.066-0.554,0.064-0.873
			v-0.143c-0.005-0.821,0.385-1.432,1.158-1.813c0.281-0.139,0.56-0.285,0.84-0.432c0.252-0.132,0.504-0.264,0.759-0.392
			c0.36-0.181,0.445-0.385,0.324-0.778l-0.585-1.854c-0.367-1.158-0.431-1.158-0.698-1.158c-0.212,0-0.521,0.052-0.922,0.129
			c-0.446,0.086-0.812,0.126-1.147,0.126c-1.161,0-1.979-0.513-2.501-1.568c-1.209-0.953-0.991-2.076-0.728-2.842l0.173-0.489
			c0.502-1.41,0.502-1.41-1.263-2.287L22.826,2.84c-0.693-0.362-1.194-0.624-1.448-0.624c-0.23,0-0.517,0.37-1.114,1.213
			c-0.444,0.629-1.093,1.353-2.167,1.353c-0.248,0-0.513-0.04-0.788-0.118c-0.076-0.021-0.183-0.024-0.267-0.024l-0.276,0.003
			c-0.187,0-0.407-0.011-0.628-0.092c-0.62-0.228-1.076-0.526-1.356-0.885c-0.306-0.397-0.523-0.835-0.733-1.259
			c-0.094-0.19-0.188-0.38-0.29-0.564c-0.195-0.352-0.382-0.352-0.462-0.352c-0.065,0-0.139,0.013-0.22,0.037
			c-0.892,0.272-1.787,0.549-2.675,0.839c-0.346,0.114-0.462,0.308-0.413,0.69c0.035,0.28,0.075,0.559,0.116,0.838
			c0.049,0.34,0.098,0.68,0.139,1.021c0.083,0.738-0.536,1.554-0.913,1.976c-0.656,0.733-1.791,1.587-2.636,1.47
			C6.532,8.339,6.372,8.288,6.213,8.233l-0.49-0.16C5.33,7.947,4.937,7.82,4.545,7.686C4.214,7.572,3.978,7.444,3.659,8.061
			L2.694,9.917c-0.529,1.018-0.529,1.018,0.314,1.548c1.083,0.681,2.445,1.835,1.786,3.991c-0.001,0.006-0.005,0.035-0.002,0.12
			c0.049,0.891-0.376,1.565-1.23,1.943C3.235,17.664,2.92,17.833,2.606,18c-0.187,0.101-0.373,0.199-0.561,0.294
			c-0.387,0.194-0.481,0.424-0.349,0.847c0.238,0.783,0.483,1.559,0.736,2.333c0.246,0.759,0.521,0.669,0.981,0.607
			c0.219-0.029,0.436-0.063,0.653-0.096c0.356-0.055,0.713-0.108,1.072-0.146l0.134-0.007c0.848,0,1.767,0.8,2.344,1.548
			c0.31,0.402,1.008,1.433,0.781,2.296c-0.018,0.078-0.047,0.167-0.076,0.256l-0.544,1.691c-0.124,0.379-0.031,0.604,0.331,0.802
			c0.39,0.211,0.787,0.416,1.183,0.621l0.601,0.312c0.379,0.199,0.803,0.41,1.031,0.41c0.149,0,0.333-0.134,0.749-0.789
			C12.453,27.752,13.357,27.206,14.604,27.206z M16.175,22.788C16.174,22.788,16.174,22.788,16.175,22.788
			c-2.954,0-5.558-1.872-6.481-4.658c-0.573-1.725-0.438-3.571,0.381-5.198c0.814-1.618,2.206-2.82,3.918-3.383
			c0.724-0.238,1.468-0.359,2.211-0.359c2.942,0,5.454,1.837,6.4,4.681c0.569,1.72,0.434,3.559-0.384,5.181
			c-0.816,1.621-2.215,2.828-3.938,3.396C17.601,22.674,16.892,22.788,16.175,22.788z M16.203,10.189
			c-0.636,0-1.275,0.104-1.898,0.31c-1.458,0.479-2.643,1.503-3.337,2.882c-0.699,1.388-0.814,2.963-0.325,4.435
			c0.775,2.339,3.05,3.973,5.532,3.973h0c0.61,0,1.213-0.098,1.793-0.29c1.47-0.485,2.662-1.515,3.359-2.897
			c0.696-1.383,0.813-2.951,0.327-4.416C20.847,11.757,18.707,10.189,16.203,10.189z"/>
	</g>
</g>
</svg>
