<?xml version="1.0" encoding="utf-8"?>
<!-- Generator: Adobe Illustrator 15.0.0, SVG Export Plug-In . SVG Version: 6.00 Build 0)  -->
<!DOCTYPE svg PUBLIC "-//W3C//DTD SVG 1.1//EN" "http://www.w3.org/Graphics/SVG/1.1/DTD/svg11.dtd">
<svg version="1.1" id="Слой_1" xmlns="http://www.w3.org/2000/svg" xmlns:xlink="http://www.w3.org/1999/xlink" x="0px" y="0px"
	 width="32px" height="32px" viewBox="0 0 32 32" enable-background="new 0 0 32 32" xml:space="preserve">
<g>
	<defs>
		<rect id="SVGID_1_" x="-647.75" y="-98.668" width="1303.166" height="359.983"/>
	</defs>
	<clipPath id="SVGID_2_">
		<use xlink:href="#SVGID_1_"  overflow="visible"/>
	</clipPath>
	<path clip-path="url(#SVGID_2_)" fill="#37929b" d="M7.764,24.788H3.775v-9.164h3.988V24.788z M9.764,13.622H1.775v13.164h7.988
		V13.622z"/>
</g>
<g>
	<defs>
		<rect id="SVGID_3_" x="-647.75" y="-98.668" width="1303.166" height="359.983"/>
	</defs>
	<clipPath id="SVGID_4_">
		<use xlink:href="#SVGID_3_"  overflow="visible"/>
	</clipPath>
	<path clip-path="url(#SVGID_4_)" fill="#37929b" d="M18.768,24.788h-3.984V3.806h3.984V24.788z M20.768,1.806h-7.984v24.982h7.984
		V1.806z"/>
</g>
<g>
	<defs>
		<rect id="SVGID_5_" x="-647.75" y="-98.668" width="1303.166" height="359.983"/>
	</defs>
	<clipPath id="SVGID_6_">
		<use xlink:href="#SVGID_5_"  overflow="visible"/>
	</clipPath>
	<path clip-path="url(#SVGID_6_)" fill="#37929b" d="M29.775,24.788h-3.988V9.856h3.988V24.788z M31.775,7.856h-7.988v18.932h7.988
		V7.856z"/>
</g>
<g>
	<defs>
		<rect id="SVGID_7_" x="-647.75" y="-98.668" width="1303.166" height="359.983"/>
	</defs>
	<clipPath id="SVGID_8_">
		<use xlink:href="#SVGID_7_"  overflow="visible"/>
	</clipPath>
	<rect x="1.773" y="29.806" clip-path="url(#SVGID_8_)" fill="#37929b" width="30.002" height="2"/>
</g>
</svg>
