<?xml version="1.0" encoding="utf-8"?>
<!-- Generator: Adobe Illustrator 15.0.0, SVG Export Plug-In . SVG Version: 6.00 Build 0)  -->
<!DOCTYPE svg PUBLIC "-//W3C//DTD SVG 1.1//EN" "http://www.w3.org/Graphics/SVG/1.1/DTD/svg11.dtd">
<svg version="1.1" id="Слой_1" xmlns="http://www.w3.org/2000/svg" xmlns:xlink="http://www.w3.org/1999/xlink" x="0px" y="0px"
	 width="32px" height="32px" viewBox="0 0 32 32" enable-background="new 0 0 32 32" xml:space="preserve">
<g>
	<defs>
		<rect id="SVGID_1_" x="-508.082" y="-99.001" width="1303.166" height="359.984"/>
	</defs>
	<clipPath id="SVGID_2_">
		<use xlink:href="#SVGID_1_"  overflow="visible"/>
	</clipPath>
	<g clip-path="url(#SVGID_2_)">
		<path fill="#37929b" d="M16.783,31.547c-8.312,0-15.075-6.762-15.075-15.072c0-8.312,6.763-15.074,15.075-15.074v1
			c-7.761,0-14.075,6.313-14.075,14.074c0,7.76,6.314,14.072,14.075,14.072c7.759,0,14.07-6.313,14.07-14.072
			c0-3.423-1.243-6.722-3.501-9.291l0.752-0.66c2.417,2.75,3.749,6.285,3.749,9.951C31.854,24.785,25.093,31.547,16.783,31.547z"/>
	</g>
</g>
<g>
	<defs>
		<rect id="SVGID_3_" x="-508.082" y="-99.001" width="1303.166" height="359.984"/>
	</defs>
	<clipPath id="SVGID_4_">
		<use xlink:href="#SVGID_3_"  overflow="visible"/>
	</clipPath>
	<g clip-path="url(#SVGID_4_)">
		<polygon fill="#37929b" points="22.115,2.907 27.453,11.88 28,7.346 32.209,5.575 		"/>
	</g>
</g>
<g>
	<defs>
		<rect id="SVGID_5_" x="-508.082" y="-99.001" width="1303.166" height="359.984"/>
	</defs>
	<clipPath id="SVGID_6_">
		<use xlink:href="#SVGID_5_"  overflow="visible"/>
	</clipPath>
	<g clip-path="url(#SVGID_6_)">
		<path fill="#37929b" d="M15.229,18.529c-0.276,0-0.5-0.224-0.5-0.5V9.302c0-0.276,0.224-0.5,0.5-0.5s0.5,0.224,0.5,0.5v8.727
			C15.729,18.306,15.505,18.529,15.229,18.529z"/>
	</g>
</g>
<g>
	<defs>
		<rect id="SVGID_7_" x="-508.082" y="-99.001" width="1303.166" height="359.984"/>
	</defs>
	<clipPath id="SVGID_8_">
		<use xlink:href="#SVGID_7_"  overflow="visible"/>
	</clipPath>
	<g clip-path="url(#SVGID_8_)">
		<path fill="#37929b" d="M25.418,18.529H15.229c-0.276,0-0.5-0.224-0.5-0.5s0.224-0.5,0.5-0.5h10.189c0.276,0,0.5,0.224,0.5,0.5
			S25.694,18.529,25.418,18.529z"/>
	</g>
</g>
</svg>
