<?xml version="1.0" encoding="utf-8"?>
<!-- Generator: Adobe Illustrator 15.0.0, SVG Export Plug-In . SVG Version: 6.00 Build 0)  -->
<!DOCTYPE svg PUBLIC "-//W3C//DTD SVG 1.1//EN" "http://www.w3.org/Graphics/SVG/1.1/DTD/svg11.dtd">
<svg version="1.1" id="Слой_1" xmlns="http://www.w3.org/2000/svg" xmlns:xlink="http://www.w3.org/1999/xlink" x="0px" y="0px"
	 width="32px" height="32px" viewBox="0 0 32 32" enable-background="new 0 0 32 32" xml:space="preserve">
<g>
	<defs>
		<rect id="SVGID_1_" x="-973.083" y="-99.484" width="1303.165" height="359.984"/>
	</defs>
	<clipPath id="SVGID_2_">
		<use xlink:href="#SVGID_1_"  overflow="visible"/>
	</clipPath>
	<polygon clip-path="url(#SVGID_2_)" fill="#37929b" points="16.27,18.377 3.148,5.262 5.59,2.818 16.27,13.5 	"/>
</g>
<g>
	<defs>
		<rect id="SVGID_3_" x="-973.083" y="-99.484" width="1303.165" height="359.984"/>
	</defs>
	<clipPath id="SVGID_4_">
		<use xlink:href="#SVGID_3_"  overflow="visible"/>
	</clipPath>
	<polygon clip-path="url(#SVGID_4_)" fill="#37929b" points="4.629,18.377 4.625,4.297 18.707,4.301 15.395,0.99 1.32,0.992 
		1.32,15.066 	"/>
</g>
<g>
	<defs>
		<rect id="SVGID_5_" x="-973.083" y="-99.484" width="1303.165" height="359.984"/>
	</defs>
	<clipPath id="SVGID_6_">
		<use xlink:href="#SVGID_5_"  overflow="visible"/>
	</clipPath>
	<path clip-path="url(#SVGID_6_)" fill="#37929b" d="M25.98,10.402h-9.117c-0.551,0-1,0.449-1,1v18.59c0,0.549,0.449,0.998,1,0.998
		H30.32c0.547,0,0.996-0.449,0.996-0.998V15.359C31.316,15.027,26.469,10.359,25.98,10.402 M30.445,30.158H16.727V11.246h9.148
		v4.482h4.57V30.158z"/>
</g>
<g>
	<defs>
		<rect id="SVGID_7_" x="-973.083" y="-99.484" width="1303.165" height="359.984"/>
	</defs>
	<clipPath id="SVGID_8_">
		<use xlink:href="#SVGID_7_"  overflow="visible"/>
	</clipPath>
	<rect x="18.48" y="17.393" clip-path="url(#SVGID_8_)" fill="#37929b" width="5.875" height="1.26"/>
</g>
<g>
	<defs>
		<rect id="SVGID_9_" x="-973.083" y="-99.484" width="1303.165" height="359.984"/>
	</defs>
	<clipPath id="SVGID_10_">
		<use xlink:href="#SVGID_9_"  overflow="visible"/>
	</clipPath>
	<rect x="18.48" y="20.461" clip-path="url(#SVGID_10_)" fill="#37929b" width="10.031" height="1.26"/>
</g>
<g>
	<defs>
		<rect id="SVGID_11_" x="-973.083" y="-99.484" width="1303.165" height="359.984"/>
	</defs>
	<clipPath id="SVGID_12_">
		<use xlink:href="#SVGID_11_"  overflow="visible"/>
	</clipPath>
	<rect x="18.48" y="23.527" clip-path="url(#SVGID_12_)" fill="#37929b" width="10.031" height="1.258"/>
</g>
<g>
	<defs>
		<rect id="SVGID_13_" x="-973.083" y="-99.484" width="1303.165" height="359.984"/>
	</defs>
	<clipPath id="SVGID_14_">
		<use xlink:href="#SVGID_13_"  overflow="visible"/>
	</clipPath>
	<rect x="18.48" y="26.594" clip-path="url(#SVGID_14_)" fill="#37929b" width="10.031" height="1.258"/>
</g>
</svg>
