<?xml version="1.0" encoding="utf-8"?>
<!-- Generator: Adobe Illustrator 15.0.0, SVG Export Plug-In . SVG Version: 6.00 Build 0)  -->
<!DOCTYPE svg PUBLIC "-//W3C//DTD SVG 1.1//EN" "http://www.w3.org/Graphics/SVG/1.1/DTD/svg11.dtd">
<svg version="1.1" id="Слой_1" xmlns="http://www.w3.org/2000/svg" xmlns:xlink="http://www.w3.org/1999/xlink" x="0px" y="0px"
	 width="32px" height="32px" viewBox="0 0 32 32" enable-background="new 0 0 32 32" xml:space="preserve">
<g>
	<defs>
		<rect id="SVGID_1_" x="-462.75" y="-98.668" width="1303.166" height="359.982"/>
	</defs>
	<clipPath id="SVGID_2_">
		<use xlink:href="#SVGID_1_"  overflow="visible"/>
	</clipPath>
	<g clip-path="url(#SVGID_2_)">
		<path fill="#37929b" d="M16.128,3.807c7.168,0,13,5.832,13,13s-5.832,13-13,13s-13-5.832-13-13S8.96,3.807,16.128,3.807
			 M16.128,1.807c-8.285,0-15,6.715-15,15c0,8.283,6.715,15,15,15c8.283,0,15-6.717,15-15C31.128,8.521,24.413,1.807,16.128,1.807"
			/>
	</g>
</g>
<g>
	<defs>
		<rect id="SVGID_3_" x="-462.75" y="-98.668" width="1303.166" height="359.982"/>
	</defs>
	<clipPath id="SVGID_4_">
		<use xlink:href="#SVGID_3_"  overflow="visible"/>
	</clipPath>
	<g clip-path="url(#SVGID_4_)">
		<path fill="#37929b" d="M18.366,22.045h-0.249l-0.012-2.48l0.235-0.016c0.516-0.032,0.904-0.215,1.155-0.543
			c0.417-0.546,0.383-1.362,0.341-1.736h-2.723v-5.703h6.135v5.285C23.249,20.298,21.606,22.045,18.366,22.045z M18.607,20.024
			l0.008,1.517c2.78-0.085,4.134-1.621,4.134-4.689v-4.785h-5.135v4.703h2.642l0.041,0.199c0.012,0.059,0.286,1.438-0.403,2.341
			C19.593,19.703,19.16,19.943,18.607,20.024z"/>
	</g>
</g>
<g>
	<defs>
		<rect id="SVGID_5_" x="-462.75" y="-98.668" width="1303.166" height="359.982"/>
	</defs>
	<clipPath id="SVGID_6_">
		<use xlink:href="#SVGID_5_"  overflow="visible"/>
	</clipPath>
	<g clip-path="url(#SVGID_6_)">
		<path fill="#37929b" d="M10.259,22.045H10.01l-0.012-2.48l0.235-0.016c0.517-0.032,0.906-0.215,1.157-0.544
			c0.417-0.546,0.383-1.362,0.34-1.735H9.007v-5.703h6.137v5.285C15.144,20.298,13.5,22.045,10.259,22.045z M10.5,20.024
			l0.007,1.517c2.783-0.085,4.136-1.621,4.136-4.689v-4.785H9.507v4.703h2.643l0.041,0.199c0.012,0.059,0.287,1.437-0.403,2.34
			C11.486,19.703,11.054,19.943,10.5,20.024z"/>
	</g>
</g>
</svg>
