<?xml version="1.0" encoding="utf-8"?>
<!-- Generator: Adobe Illustrator 15.0.0, SVG Export Plug-In . SVG Version: 6.00 Build 0)  -->
<!DOCTYPE svg PUBLIC "-//W3C//DTD SVG 1.1//EN" "http://www.w3.org/Graphics/SVG/1.1/DTD/svg11.dtd">
<svg version="1.1" id="Слой_1" xmlns="http://www.w3.org/2000/svg" xmlns:xlink="http://www.w3.org/1999/xlink" x="0px" y="0px"
	 width="32px" height="32px" viewBox="0 0 32 32" enable-background="new 0 0 32 32" xml:space="preserve">
<g>
	<defs>
		<rect id="SVGID_1_" x="-144.35" y="-104" width="1358.819" height="375.359"/>
	</defs>
	<clipPath id="SVGID_2_">
		<use xlink:href="#SVGID_1_"  overflow="visible"/>
	</clipPath>
	<g clip-path="url(#SVGID_2_)">
		<path fill="#37929b" d="M16.229,2.85c7.474,0,13.555,6.081,13.555,13.555c0,7.476-6.081,13.556-13.555,13.556
			c-7.476,0-13.557-6.08-13.557-13.556C2.672,8.93,8.753,2.85,16.229,2.85 M16.229,0.763c-8.64,0-15.643,7.006-15.643,15.641
			c0,8.638,7.003,15.642,15.643,15.642c8.634,0,15.638-7.004,15.638-15.642C31.866,7.77,24.862,0.763,16.229,0.763"/>
	</g>
</g>
<g>
	<defs>
		<rect id="SVGID_3_" x="-144.35" y="-104" width="1358.819" height="375.359"/>
	</defs>
	<clipPath id="SVGID_4_">
		<use xlink:href="#SVGID_3_"  overflow="visible"/>
	</clipPath>
	<g clip-path="url(#SVGID_4_)">
		<path fill="#37929b" d="M15.185,18.49c-0.576,0-1.042-0.467-1.042-1.042V8.086c0-0.575,0.466-1.042,1.042-1.042
			c0.577,0,1.044,0.467,1.044,1.042v9.362C16.229,18.023,15.762,18.49,15.185,18.49z"/>
	</g>
</g>
<g>
	<defs>
		<rect id="SVGID_5_" x="-144.35" y="-104" width="1358.819" height="375.359"/>
	</defs>
	<clipPath id="SVGID_6_">
		<use xlink:href="#SVGID_5_"  overflow="visible"/>
	</clipPath>
	<g clip-path="url(#SVGID_6_)">
		<path fill="#37929b" d="M26.125,18.49h-10.94c-0.576,0-1.042-0.467-1.042-1.042c0-0.578,0.466-1.044,1.042-1.044h10.94
			c0.578,0,1.042,0.466,1.042,1.044C27.167,18.023,26.703,18.49,26.125,18.49z"/>
	</g>
</g>
</svg>
