<?xml version="1.0" encoding="utf-8"?>
<!-- Generator: Adobe Illustrator 15.0.0, SVG Export Plug-In . SVG Version: 6.00 Build 0)  -->
<!DOCTYPE svg PUBLIC "-//W3C//DTD SVG 1.1//EN" "http://www.w3.org/Graphics/SVG/1.1/DTD/svg11.dtd">
<svg version="1.1" id="Слой_1" xmlns="http://www.w3.org/2000/svg" xmlns:xlink="http://www.w3.org/1999/xlink" x="0px" y="0px"
	 width="32px" height="32px" viewBox="0 0 32 32" enable-background="new 0 0 32 32" xml:space="preserve">
<g>
	<defs>
		<rect id="SVGID_1_" x="-880.083" y="-99.483" width="1303.166" height="359.983"/>
	</defs>
	<clipPath id="SVGID_2_">
		<use xlink:href="#SVGID_1_"  overflow="visible"/>
	</clipPath>
	<g clip-path="url(#SVGID_2_)">
		<path fill="#37929b" d="M18.078,18.918l-0.023-0.623c-0.074-1.225,0.336-2.473,1.414-3.768c0.766-0.91,1.387-1.68,1.387-2.496
			c0-0.84-0.547-1.389-1.75-1.438c-0.789,0-1.75,0.289-2.375,0.721l-0.813-2.615c0.863-0.504,2.301-0.982,4.004-0.982
			c3.168,0,4.605,1.75,4.605,3.74c0,1.824-1.125,3.023-2.039,4.029c-0.887,0.984-1.246,1.92-1.223,2.998v0.434H18.078z
			 M18.699,20.221c0.266-0.115,0.563-0.176,0.891-0.176c1.293,0,2.133,0.912,2.156,2.184c0,1.246-0.863,2.182-2.156,2.182
			c-0.32,0-0.609-0.059-0.867-0.164L18.699,20.221z"/>
	</g>
</g>
<g>
	<defs>
		<rect id="SVGID_3_" x="-880.083" y="-99.483" width="1303.166" height="359.983"/>
	</defs>
	<clipPath id="SVGID_4_">
		<use xlink:href="#SVGID_3_"  overflow="visible"/>
	</clipPath>
	<g clip-path="url(#SVGID_4_)">
		<path fill="#37929b" d="M8.976,27.156v2.379c0,0.801,0.652,1.455,1.453,1.455h19.61c0.801,0,1.457-0.654,1.457-1.455V8.215
			c0-0.486-7.066-7.285-7.777-7.225h-13.29c-0.797,0-1.453,0.656-1.453,1.455v17.369h1.254V2.217h13.329V8.75h6.66v21.027H10.23
			v-2.621H8.976z"/>
	</g>
</g>
<g>
	<defs>
		<rect id="SVGID_5_" x="-880.083" y="-99.483" width="1303.166" height="359.983"/>
	</defs>
	<clipPath id="SVGID_6_">
		<use xlink:href="#SVGID_5_"  overflow="visible"/>
	</clipPath>
	<g clip-path="url(#SVGID_6_)">
		<path fill="#37929b" d="M19.078,27.406H1.25v-7.842h17.829V27.406z M1.75,26.906h16.829v-6.842H1.75V26.906z"/>
	</g>
</g>
<g enable-background="new    ">
	<path fill="#37929b" d="M4.512,22.368H3.41v-0.775h3.138v0.775H5.433v3.308H4.512V22.368z"/>
</g>
<g enable-background="new    ">
	<path fill="#37929b" d="M7.713,25.676v-1.672l-1.29-2.411h1.06l0.412,0.981c0.127,0.297,0.218,0.516,0.315,0.781h0.012
		c0.091-0.254,0.188-0.49,0.309-0.781l0.412-0.981h1.036l-1.345,2.381v1.702H7.713z"/>
</g>
<g enable-background="new    ">
	<path fill="#37929b" d="M9.945,21.647c0.285-0.048,0.685-0.085,1.248-0.085c0.57,0,0.976,0.109,1.248,0.333
		c0.267,0.2,0.436,0.54,0.436,0.938c0,0.406-0.127,0.746-0.375,0.97c-0.315,0.291-0.781,0.431-1.327,0.431
		c-0.121,0-0.23-0.006-0.315-0.024v1.466H9.945V21.647z M10.86,23.501c0.079,0.019,0.17,0.024,0.309,0.024
		c0.491,0,0.793-0.248,0.793-0.66c0-0.376-0.26-0.6-0.727-0.6c-0.182,0-0.309,0.012-0.375,0.029V23.501z"/>
	<path fill="#37929b" d="M15.897,23.949h-1.502v0.969h1.678v0.758h-2.599v-4.083h2.514v0.757h-1.593v0.849h1.502V23.949z"/>
</g>
</svg>
