<?xml version="1.0" encoding="utf-8"?>
<!-- Generator: Adobe Illustrator 15.0.0, SVG Export Plug-In . SVG Version: 6.00 Build 0)  -->
<!DOCTYPE svg PUBLIC "-//W3C//DTD SVG 1.1//EN" "http://www.w3.org/Graphics/SVG/1.1/DTD/svg11.dtd">
<svg version="1.1" id="Слой_1" xmlns="http://www.w3.org/2000/svg" xmlns:xlink="http://www.w3.org/1999/xlink" x="0px" y="0px"
	 width="32px" height="32px" viewBox="0 0 32 32" enable-background="new 0 0 32 32" xml:space="preserve">
<g>
	<defs>
		<rect id="SVGID_1_" x="-555.249" y="-99.334" width="1303.165" height="359.981"/>
	</defs>
	<clipPath id="SVGID_2_">
		<use xlink:href="#SVGID_1_"  overflow="visible"/>
	</clipPath>
	<g clip-path="url(#SVGID_2_)">
		<path fill="#37929b" d="M16.453,3.435c7.168,0,13,5.832,13,13c0,7.168-5.832,13-13,13c-7.168,0-13-5.832-13-13
			C3.453,9.267,9.285,3.435,16.453,3.435 M16.453,1.435c-8.283,0-15,6.717-15,15c0,8.283,6.717,15,15,15c8.286,0,15-6.717,15-15
			C31.453,8.152,24.738,1.435,16.453,1.435"/>
	</g>
</g>
<g enable-background="new    ">
	<path fill="#37929b" d="M8.58,19.307c-0.031-4.192,1.829-5.863,4.382-5.863c1.545,0,2.617,0.504,4.413,1.513
		c1.388,0.756,2.238,1.229,3.027,1.229c0.725,0,1.197-0.662,1.261-2.554h2.995c0.188,4.477-1.797,5.926-4.193,5.926
		c-1.514,0-2.711-0.535-4.413-1.513c-1.387-0.788-2.238-1.292-2.995-1.292c-0.788,0-1.355,0.536-1.481,2.553H8.58z"/>
</g>
</svg>
