<?xml version="1.0" encoding="utf-8"?>
<!-- Generator: Adobe Illustrator 15.0.0, SVG Export Plug-In . SVG Version: 6.00 Build 0)  -->
<!DOCTYPE svg PUBLIC "-//W3C//DTD SVG 1.1//EN" "http://www.w3.org/Graphics/SVG/1.1/DTD/svg11.dtd">
<svg version="1.1" id="Слой_1" xmlns="http://www.w3.org/2000/svg" xmlns:xlink="http://www.w3.org/1999/xlink" x="0px" y="0px"
	 width="32px" height="32px" viewBox="0 0 32 32" enable-background="new 0 0 32 32" xml:space="preserve">
<g>
	<defs>
		<rect id="SVGID_1_" x="-323.083" y="-99.667" width="1303.166" height="359.983"/>
	</defs>
	<clipPath id="SVGID_2_">
		<use xlink:href="#SVGID_1_"  overflow="visible"/>
	</clipPath>
	<path clip-path="url(#SVGID_2_)" fill="#37929b" d="M13.64,1.807c4.407,0,8.303,2.553,10.084,6.477h-3.189
		C19,5.994,16.411,4.595,13.64,4.595c-4.571,0-8.292,3.721-8.292,8.292c0,4.572,3.721,8.291,8.292,8.291
		c2.854,0,5.487-1.463,7.002-3.855h0.658h0.354l0.273-0.221l0.523-0.422l1.137,0.742l0.129,0.084
		c-1.771,3.885-5.67,6.459-10.077,6.459c-6.107,0-11.08-4.969-11.08-11.078C2.56,6.778,7.533,1.807,13.64,1.807 M13.64,0.807
		c-6.672,0-12.08,5.408-12.08,12.08c0,6.669,5.408,12.078,12.08,12.078c5.668,0,10.422-3.902,11.727-9.168l-1.234,0.787
		l-1.744-1.139l-1.088,0.877h-1.23c-1.23,2.293-3.652,3.855-6.43,3.855c-4.02,0-7.292-3.27-7.292-7.291
		c0-4.021,3.272-7.292,7.292-7.292c2.71,0,5.081,1.486,6.338,3.688h5.193C23.641,4.372,19.057,0.807,13.64,0.807"/>
</g>
<g>
	<defs>
		<rect id="SVGID_3_" x="-323.083" y="-99.667" width="1303.166" height="359.983"/>
	</defs>
	<clipPath id="SVGID_4_">
		<use xlink:href="#SVGID_3_"  overflow="visible"/>
	</clipPath>
	<polyline clip-path="url(#SVGID_4_)" fill="#37929b" points="18.807,15.141 20.881,15.141 22.281,13.95 24.135,15.141 
		26.006,13.95 27.867,15.141 29.713,15.141 31.563,12.824 29.736,10.53 18.807,10.53 	"/>
</g>
<g>
	<defs>
		<rect id="SVGID_5_" x="-323.083" y="-99.667" width="1303.166" height="359.983"/>
	</defs>
	<clipPath id="SVGID_6_">
		<use xlink:href="#SVGID_5_"  overflow="visible"/>
	</clipPath>
	<path clip-path="url(#SVGID_6_)" fill="#37929b" d="M28.133,30.807c-0.422,0-0.842-0.158-1.16-0.479l-6.35-6.396
		c-0.307-0.311-0.475-0.721-0.475-1.158c0.002-0.438,0.174-0.848,0.482-1.156l1.793-1.783c0.641-0.637,1.678-0.635,2.314,0.008
		l6.348,6.396c0.637,0.639,0.635,1.676-0.006,2.311l-1.795,1.785C28.967,30.65,28.549,30.807,28.133,30.807 M23.578,20.359
		c-0.17,0-0.33,0.066-0.447,0.184l-1.797,1.785c-0.119,0.117-0.184,0.277-0.186,0.447c0,0.172,0.064,0.332,0.184,0.453l6.348,6.393
		c0.121,0.121,0.279,0.186,0.451,0.186c0.125,0.002,0.33-0.063,0.449-0.182l1.795-1.783c0.25-0.248,0.25-0.652,0.004-0.9
		l-6.348-6.396C23.91,20.426,23.793,20.354,23.578,20.359"/>
</g>
<g>
	<defs>
		<rect id="SVGID_7_" x="-323.083" y="-99.667" width="1303.166" height="359.983"/>
	</defs>
	<clipPath id="SVGID_8_">
		<use xlink:href="#SVGID_7_"  overflow="visible"/>
	</clipPath>
	<path clip-path="url(#SVGID_8_)" fill="#37929b" d="M18.807,10.53c-0.887-2.004-2.89-3.402-5.222-3.402
		c-3.152,0-5.708,2.556-5.708,5.708c0,3.153,2.556,5.708,5.708,5.708c2.332,0,4.335-1.396,5.222-3.398
		c0.313-0.708,0.486-1.487,0.486-2.309C19.293,12.015,19.119,11.234,18.807,10.53 M11.678,14.62c-0.992,0-1.794-0.804-1.794-1.794
		c0-0.992,0.802-1.796,1.794-1.796s1.794,0.804,1.794,1.796C13.472,13.816,12.668,14.62,11.678,14.62"/>
</g>
</svg>
